PathFileType	4	(X/Y/Z)	23_coords_data.trc
DataRate	CameraRate	NumFrames	NumMarkers	Units	OrigDataRate	OrigDataStartFrame	OrigNumFrames
30.0	30.0	4	21	m	30.0	1	71
Frame#	Time	THUMB_TIP	THUMB_IP	THUMB_MCP	THUMB_CMC	INDEX_TIP	INDEX_DIP	INDEX_PIP	INDEX_MCP	MIDDLE_TIP	MIDDLE_DIP	MIDDLE_PIP	MIDDLE_MCP	RING_TIP	RING_DIP	RING_PIP	RING_MCP	PINKY_TIP	PINKY_DIP	PINKY_PIP	PINKY_MCP	WRIST
X1	Y1	Z1	X2	Y2	Z2	X3	Y3	Z3	X4	Y4	Z4	X5	Y5	Z5	X6	Y6	Z6	X7	Y7	Z7	X8	Y8	Z8	X9	Y9	Z9	X10	Y10	Z10	X11	Y11	Z11	X12	Y12	Z12	X13	Y13	Z13	X14	Y14	Z14	X15	Y15	Z15	X16	Y16	Z16	X17	Y17	Z17	X18	Y18	Z18	X19	Y19	Z19	X20	Y20	Z20	X21	Y21	Z21
0	0.0	0.001436239957809448	0.06108530044555664	0.9633930053710937	-0.007045060157775879	0.03802629852294922	0.9635650024414063	-0.03456129837036133	0.025788700103759766	0.9677449951171875	-0.06302370071411133	0.03671469879150391	0.9773720092773438	0.02778059959411621	0.024673299789428713	0.8596420288085938	0.011270700454711914	0.02631100082397461	0.8757849731445313	-0.007028200149536133	0.027414899826049804	0.888760009765625	-0.04206679916381836	0.03386569976806641	0.9126740112304688	-0.01644459915161133	0.047132999420166015	0.9511199951171875	0.0007926830053329461	0.04951679992675781	0.943551025390625	-5.7214200496673e-05	0.056417598724365234	0.9146430053710938	-0.04725709915161133	0.05711479949951172	0.9149669799804687	-0.016604799270629883	0.05527610015869141	0.9610599975585937	-0.0017201000452041623	0.0645864028930664	0.94793701171875	-0.003828219890594482	0.07794039916992188	0.9264710083007812	-0.048313400268554685	0.07782530212402344	0.9264749755859375	0.009560740470886231	0.1258300018310547	0.9116929931640625	-0.0049668998718261715	0.11301100158691406	0.9222329711914062	-0.017452899932861327	0.10177200317382812	0.9314829711914062	-0.04089870071411133	0.08404340362548827	0.9420709838867187	-0.10181300354003907	0.05307649993896484	0.9880640258789063
1	0.03333333333333333	0.0021528499126434323	0.06106719970703125	0.9610579833984375	-0.00788090991973877	0.038255298614501956	0.9635650024414063	-0.03613729858398437	0.025253599166870117	0.9669530029296876	-0.06289960098266602	0.03704690170288086	0.9767960205078124	0.02799449920654297	0.024868400573730468	0.8598419799804687	0.011572999954223633	0.02597089958190918	0.8770180053710938	-0.007110219955444336	0.028131200790405275	0.8921389770507813	-0.04093450164794922	0.03413710021972656	0.9173040161132813	-0.017066200256347655	0.04542050170898437	0.9544249877929688	-1.6046399250626e-05	0.049761600494384765	0.9437230224609375	-0.000218738004565238	0.05673469924926758	0.917031005859375	-0.04598709869384766	0.05763119888305664	0.9146699829101562	-0.014454099655151367	0.05548889923095703	0.9612050170898437	-0.0021886000633239743	0.0648511962890625	0.949739990234375	-0.004018660068511963	0.07815850067138672	0.92656298828125	-0.047481700897216796	0.07734210205078125	0.9257830200195313	0.008464409828186035	0.12625199890136718	0.9123200073242187	-0.004575600147247314	0.11327700042724609	0.9231820068359375	-0.017186700820922853	0.10202200317382812	0.9312210083007812	-0.0402869987487793	0.08572789764404297	0.9433679809570312	-0.09949669647216797	0.05157500076293945	0.9848779907226562
2	0.06666666666666667	0.00228971004486084	0.06127830123901367	0.9612559814453125	-0.007786180019378662	0.03850709915161133	0.96372900390625	-0.036139801025390626	0.025822999954223633	0.9677219848632812	-0.06300350189208985	0.03717050170898437	0.9768350219726563	0.02818440055847168	0.025061700820922853	0.860114990234375	0.011755399703979492	0.02610009956359863	0.8772249755859375	-0.006930870056152344	0.02827429962158203	0.8924290161132813	-0.040952301025390624	0.03429040145874023	0.9175130004882812	-0.017237499237060548	0.04558810043334961	0.9546380004882813	-3.7366401404142e-05	0.05023809814453125	0.943677001953125	-0.00014187699556350702	0.05695439910888672	0.9173090209960938	-0.04580030059814453	0.05778570175170898	0.9147680053710937	-0.014672300338745118	0.055963199615478514	0.9615880126953125	-0.002006150007247925	0.0651958999633789	0.9497750244140625	-0.003961430072784424	0.07828659820556641	0.926468994140625	-0.047458099365234374	0.07749469757080078	0.9258729858398438	0.00858100986480713	0.12651200103759766	0.9128599853515625	-0.004483459949493408	0.1135199966430664	0.9236480102539063	-0.017106700897216796	0.10227100372314453	0.9315269775390626	-0.04004470062255859	0.0859135971069336	0.9436430053710938	-0.09967120361328125	0.05161090087890625	0.985030029296875
3	0.1	0.002429919958114624	0.061188899993896484	0.9616749877929688	-0.0077636399269104	0.03836009979248047	0.964197998046875	-0.03611479949951172	0.025479700088500975	0.9675239868164063	-0.06275519943237305	0.037050498962402346	0.9767589721679687	0.028527099609375	0.02497130012512207	0.8605089721679687	0.012063899993896484	0.02598859977722168	0.87756298828125	-0.006596069812774658	0.02819219970703125	0.8927069702148438	-0.040733600616455076	0.03419770050048828	0.9176680297851563	-0.016852500915527344	0.045317401885986326	0.9544860229492188	-5.1930800080299e-05	0.04980730056762695	0.944447021484375	5.902029946446401e-05	0.05675550079345703	0.9176669921875	-0.04585219955444336	0.057759201049804684	0.9150339965820312	-0.013878399848937989	0.05578260040283203	0.96139501953125	-0.001630800008773803	0.065277099609375	0.9489959716796875	-0.003643389940261841	0.07804840087890624	0.926927978515625	-0.047433498382568356	0.07742250061035157	0.9262169799804687	0.009559300422668457	0.12622100067138672	0.9139769897460938	-0.00378354001045227	0.1132699966430664	0.9244630126953125	-0.016617000579833983	0.10203299713134766	0.9322379760742188	-0.04003499984741211	0.08580970001220703	0.9439990234375	-0.09959729766845703	0.051610198974609375	0.9848469848632813
